<?xml version="1.0" standalone="no"?><!DOCTYPE svg PUBLIC "-//W3C//DTD SVG 1.1//EN" "http://www.w3.org/Graphics/SVG/1.1/DTD/svg11.dtd"><svg class="icon" width="200px" height="200.00px" viewBox="0 0 1024 1024" version="1.1" xmlns="http://www.w3.org/2000/svg"><path d="M128 469.333333m40.533333 0l686.933334 0q40.533333 0 40.533333 40.533334l0 4.266666q0 40.533333-40.533333 40.533334l-686.933334 0q-40.533333 0-40.533333-40.533334l0-4.266666q0-40.533333 40.533333-40.533334Z"  /><path d="M128 682.666667m40.533333 0l686.933334 0q40.533333 0 40.533333 40.533333l0 4.266667q0 40.533333-40.533333 40.533333l-686.933334 0q-40.533333 0-40.533333-40.533333l0-4.266667q0-40.533333 40.533333-40.533333Z"  /><path d="M128 256m40.533333 0l686.933334 0q40.533333 0 40.533333 40.533333l0 4.266667q0 40.533333-40.533333 40.533333l-686.933334 0q-40.533333 0-40.533333-40.533333l0-4.266667q0-40.533333 40.533333-40.533333Z"  /></svg>